{"title":"Tony Roberts:Wired.ShowtimeRip.ETC1337 ","uid":6462404,"size":901800610,"categoryP":"video","categoryS":"tv_shows","magnet":"?xt=urn:btih:4c3bc48c340c54aa39bbac9bdcdd11e5534bb4f1&amp;dn=Tony+Roberts%3AWired.ShowtimeRip.ETC1337+&amp;tr=udp%3A%2F%2Ftracker.openbittorrent.com%3A80&amp;tr=udp%3A%2F%2Fopen.demonii.com%3A1337&amp;tr=udp%3A%2F%2Ftracker.coppersurfer.tk%3A6969&amp;tr=udp%3A%2F%2Fexodus.desync.com%3A6969","seeders":1,"leechers":0,"uploader":"ETC1337","files":-1,"time":1307818722,"description":"ETC1337 Presents Tony Roberts : Wired A Showtime Special\n\n\nDetroit native Tony Roberts brings the house down with this energetic standup comedy performance filmed in front of a raucous Hollywood, California audience.\n\n\n\nShowtime Rip\n\nA-8/9\nV-6/7\n\nFormat                           : AVI\nFormat/Info                      : Audio Video Interleave\nFile size                        : 860 MiB\nDuration                         : 59mn 55s\nOverall bit rate                 : 2 006 Kbps\n\nVideo\nID                               : 0\nFormat                           : MPEG-4 Visual\nFormat profile                   : Simple@L1\nFormat settings, BVOP            : No\nFormat settings, QPel            : No\nFormat settings, GMC             : No warppoints\nFormat settings, Matrix          : Default (H.263)\nCodec ID                         : DX50\nCodec ID/Hint                    : DivX 5\nDuration                         : 59mn 55s\nBit rate                         : 1 800 Kbps\nWidth                            : 640 pixels\nHeight                           : 368 pixels\nDisplay aspect ratio             : 16:9\nFrame rate                       : 29.970 fps\nColor space                      : YUV\nChroma subsampling               : 4:2:0\nBit depth                        : 8 bits\nScan type                        : Progressive\nCompression mode                 : Lossy\nBits/(Pixel*Frame)               : 0.255\nStream size                      : 772 MiB (90%)\nWriting library                  : Lavc52.0.0\n\nAudio\nID                               : 1\nFormat                           : MPEG Audio\nFormat version                   : Version 1\nFormat profile                   : Layer 3\nMode                             : Joint stereo\nMode extension                   : MS Stereo\nCodec ID                         : 55\nCodec ID/Hint                    : MP3\nDuration                         : 59mn 55s\nBit rate mode                    : Constant\nBit rate                         : 192 Kbps\nChannel(s)                       : 2 channels\nSampling rate                    : 48.0 KHz\nCompression mode                 : Lossy\nStream size                      : 82.3 MiB (10%)\nAlignment                        : Split accross interleaves\nInterleave, duration             : 24 ms (0.72 video frame)\nInterleave, preload duration     : 69 ms\n\n\n\nPlease Seed,Comment &amp; Enjoy!","torrent":{"xt":"urn:btih:4c3bc48c340c54aa39bbac9bdcdd11e5534bb4f1","amp;dn":"Tony+Roberts%3AWired.ShowtimeRip.ETC1337+","amp;tr":["udp%3A%2F%2Ftracker.openbittorrent.com%3A80","udp%3A%2F%2Fopen.demonii.com%3A1337","udp%3A%2F%2Ftracker.coppersurfer.tk%3A6969","udp%3A%2F%2Fexodus.desync.com%3A6969"],"infoHash":"4c3bc48c340c54aa39bbac9bdcdd11e5534bb4f1","infoHashBuffer":{"type":"Buffer","data":[76,59,196,140,52,12,84,170,57,187,172,155,220,221,17,229,83,75,180,241]},"announce":[],"urlList":[]}}